HIERARCHY
ROOT Hips
{
  OFFSET 51.0805 51.3086 7.66484
  CHANNELS 6 Xposition Yposition Zposition Zrotation Xrotation Yrotation
  JOINT spine
  {
    OFFSET 0 8.81704 0.507024
    CHANNELS 3 Zrotation Xrotation Yrotation
    JOINT spine1
    {
      OFFSET 0 10.7766 0
      CHANNELS 3 Zrotation Xrotation Yrotation
      JOINT spine2
      {
        OFFSET 0 10.3259 0
        CHANNELS 3 Zrotation Xrotation Yrotation
        JOINT Neck
        {
          OFFSET 0 26.511 1.26395
          CHANNELS 3 Zrotation Xrotation Yrotation
          JOINT Head
          {
            OFFSET 0 8.00966 0
            CHANNELS 3 Zrotation Xrotation Yrotation
            End Site
            {
              OFFSET 0 19.3879 -6.39386
            }
          }
        }
        JOINT RightShoulder
        {
          OFFSET -4.34795 11.1512 -0.605422
          CHANNELS 3 Zrotation Xrotation Yrotation
          JOINT RightArm
          {
            OFFSET 0 14.6258 0
            CHANNELS 3 Zrotation Xrotation Yrotation
            JOINT RightArmRoll
            {
              OFFSET 0 7.3834 0
              CHANNELS 3 Zrotation Xrotation Yrotation
              JOINT RightForeArm
              {
                OFFSET 0 21.5052 0
                CHANNELS 3 Zrotation Xrotation Yrotation
                JOINT RightForeArmRoll
                {
                  OFFSET 0 8.28532 0
                  CHANNELS 3 Zrotation Xrotation Yrotation
                  JOINT RightHand
                  {
                    OFFSET 0 16.6268 0
                    CHANNELS 3 Zrotation Xrotation Yrotation
                    End Site
                    {
                      OFFSET 0 0 0
                    }
                  }
                }
              }
            }
          }
        }
        JOINT LeftShoulder
        {
          OFFSET 4.34795 11.1512 -0.605422
          CHANNELS 3 Zrotation Xrotation Yrotation
          JOINT LeftArm
          {
            OFFSET 0 14.6258 0
            CHANNELS 3 Zrotation Xrotation Yrotation
            JOINT LeftArmRoll
            {
              OFFSET 0 7.3834 0
              CHANNELS 3 Zrotation Xrotation Yrotation
              JOINT LeftForeArm
              {
                OFFSET 0 21.5052 0
                CHANNELS 3 Zrotation Xrotation Yrotation
                JOINT LeftForeArmRoll
                {
                  OFFSET 0 8.28532 0
                  CHANNELS 3 Zrotation Xrotation Yrotation
                  JOINT LeftHand
                  {
                    OFFSET 0 16.6268 0
                    CHANNELS 3 Zrotation Xrotation Yrotation
                    End Site
                    {
                      OFFSET 0 0 0
                    }
                  }
                }
              }
            }
          }
        }
      }
    }
  }
  JOINT RightUpLeg
  {
    OFFSET -7.8151 -1.43309 -1.20217
    CHANNELS 3 Zrotation Xrotation Yrotation
    JOINT RightUpLegRoll
    {
      OFFSET 0 19.4959 0
      CHANNELS 3 Zrotation Xrotation Yrotation
      JOINT RightLeg
      {
        OFFSET 0 -24.1427 0
        CHANNELS 3 Zrotation Xrotation Yrotation
        JOINT RightLegRoll
        {
          OFFSET 0 24.2217 0
          CHANNELS 3 Zrotation Xrotation Yrotation
          JOINT RightFoot
          {
            OFFSET 0 20.1605 0
            CHANNELS 3 Zrotation Xrotation Yrotation
            JOINT RightToeBase
            {
              OFFSET 0 16.8532 0
              CHANNELS 3 Zrotation Xrotation Yrotation
              End Site
              {
                OFFSET 0.00714343 8.16187 -0.94078
              }
            }
          }
        }
      }
    }
  }
  JOINT LeftUpLeg
  {
    OFFSET 7.8151 -1.43309 -1.20217
    CHANNELS 3 Zrotation Xrotation Yrotation
    JOINT LeftUpLegRoll
    {
      OFFSET 0 19.496 0
      CHANNELS 3 Zrotation Xrotation Yrotation
      JOINT LeftLeg
      {
        OFFSET 0 24.1426 0
        CHANNELS 3 Zrotation Xrotation Yrotation
        JOINT LeftLegRoll
        {
          OFFSET 0 24.4456 0
          CHANNELS 3 Zrotation Xrotation Yrotation
          JOINT LeftFoot
          {
            OFFSET 0 19.9366 0
            CHANNELS 3 Zrotation Xrotation Yrotation
            JOINT LeftToeBase
            {
              OFFSET 0 16.8532 0
              CHANNELS 3 Zrotation Xrotation Yrotation
              End Site
              {
                OFFSET -0.0320138 8.16187 -0.940781
              }
            }
          }
        }
      }
    }
  }
}
MOTION
Frames: 13
Frame Time: 0.00208333
48.8665 100.811 40.8312 0.697073 -3.73272 -0.180703 0.167056 -1.83808 0.010823 0.32345 0.326652 0.00544407 0.32404 1.97171 6.22404e-005 -5.80124 29.3988 5.05878 -0.77171 -9.03821 2.67487 62.9255 -1.43267 -1.36087 111.367 18.7637 9.19602 2.35335e-005 -8.3594e-007 3.1461e-006 14.9176 0.11254 -0.535361 -2.91386e-006 1.02382e-006 -3.03773 8.02894 -4.95147 0.697682 -64.1389 -5.85529 3.92692 -109.628 14.5348 -4.0485 -8.02062e-007 -1.62912e-007 -2.51927e-007 -12.3557 3.62231 0.791245 5.58675e-006 7.42893e-007 3 -8.02887 -4.95146 -0.697689 176.263 -1.86273 0.651841 180 7.01523e-015 178.822 178.964 8.5129 179.611 -4.35369e-006 -2.58604e-006 0.153536 -19.624 69.0525 20.4609 8.15581 25.5613 -3.04389 -176.44 -2.90107 2.21832 4.54188e-006 -4.6773e-006 -1.18792 -1.33559 -7.2691 0.229467 7.68121e-007 -5.91167e-006 -0.107355 19.189 68.5069 -19.9762 -8.16315 25.7663 2.77246 
48.86 100.83 40.8178 0.70071 -3.70545 -0.175109 0.166999 -1.84564 0.00804209 0.324053 0.311525 -9.923e-005 0.324671 1.95659 -0.00549526 -5.84007 29.4492 5.07773 -0.753598 -9.0634 2.67941 62.9273 -1.39554 -1.34018 111.351 18.749 9.21085 2.35335e-005 -8.3594e-007 3.1461e-006 14.9152 0.112541 -0.534369 -2.91386e-006 1.02382e-006 -3.03773 8.02894 -4.95147 0.697682 -64.1789 -5.84844 3.92525 -109.58 14.5378 -4.06347 -8.02062e-007 -1.62912e-007 -2.51927e-007 -12.3611 3.58857 0.786512 5.58675e-006 7.42893e-007 3 -8.02887 -4.95146 -0.697689 176.257 -1.83122 0.652497 180 7.01523e-015 178.822 178.961 8.50886 179.611 -4.35369e-006 -2.58604e-006 0.15357 -19.6177 69.0457 20.4541 8.15581 25.5613 -3.0444 -176.448 -2.86282 2.22779 4.54188e-006 -4.6773e-006 -1.18792 -1.33167 -7.26693 0.229988 7.68121e-007 -5.91167e-006 -0.107355 19.1795 68.4962 -19.9654 -8.16312 25.7659 2.77293 
48.8557 100.823 40.8247 0.704491 -3.67618 -0.169105 0.16691 -1.85379 0.0050993 0.324624 0.295213 -0.00596194 0.32527 1.94027 -0.0113717 -5.88012 29.5021 5.09735 -0.73455 -9.09001 2.68418 62.9298 -1.35689 -1.31871 111.335 18.7336 9.22656 2.35335e-005 -8.3594e-007 3.1461e-006 14.9128 0.112542 -0.533357 -2.91386e-006 1.02382e-006 -3.03773 8.02894 -4.95147 0.697682 -64.2204 -5.84113 3.9234 -109.531 14.5405 -4.07935 -8.02062e-007 -1.62913e-007 -2.51927e-007 -12.3667 3.55284 0.781506 5.58675e-006 7.42893e-007 3 -8.02887 -4.95146 -0.697689 176.252 -1.79726 0.653154 180 7.01523e-015 178.822 178.958 8.50507 179.612 -4.35369e-006 -2.58604e-006 0.15362 -19.6112 69.0388 20.4472 8.15581 25.5613 -3.04493 -176.455 -2.82185 2.23777 4.54188e-006 -4.6773e-006 -1.18792 -1.32753 -7.26498 0.230521 7.68121e-007 -5.91167e-006 -0.107355 19.1697 68.4851 -19.9543 -8.16309 25.7655 2.77345 
48.8631 100.826 40.8184 0.708369 -3.64553 -0.162815 0.166799 -1.86235 0.00204319 0.32517 0.278072 -0.0120482 0.325847 1.92313 -0.0174715 -5.92103 29.5567 5.11745 -0.714846 -9.11761 2.68911 62.9327 -1.31718 -1.29671 111.317 18.7176 9.24289 2.35335e-005 -8.3594e-007 3.1461e-006 14.9103 0.112544 -0.53233 -2.91386e-006 1.02382e-006 -3.03773 8.02894 -4.95147 0.697682 -64.263 -5.8335 3.92143 -109.48 14.543 -4.09585 -8.02062e-007 -1.62912e-007 -2.51927e-007 -12.3725 3.51573 0.77631 5.58675e-006 7.42893e-007 3 -8.02887 -4.95146 -0.697689 176.247 -1.7616 0.653813 180 7.01523e-015 178.822 178.955 8.50146 179.612 -4.35369e-006 -2.58604e-006 0.153682 -19.6046 69.0317 20.4402 8.15581 25.5613 -3.04547 -176.463 -2.77897 2.24812 4.54188e-006 -4.6773e-006 -1.18791 -1.32323 -7.2632 0.231061 7.68121e-007 -5.91167e-006 -0.107355 19.1598 68.4738 -19.943 -8.16307 25.7651 2.77399 
48.8613 100.826 40.8063 0.712301 -3.61408 -0.15636 0.166675 -1.87116 -0.00107769 0.3257 0.260456 -0.0182623 0.326409 1.90552 -0.0236987 -5.96245 29.6122 5.13784 -0.694764 -9.14578 2.69415 62.936 -1.27687 -1.2744 111.299 18.7012 9.25957 2.35335e-005 -8.3594e-007 3.1461e-006 14.9078 0.112545 -0.531295 -2.91386e-006 1.02382e-006 -3.03773 8.02894 -4.95147 0.697682 -64.3061 -5.82568 3.91939 -109.428 14.5453 -4.11271 -8.02062e-007 -1.62912e-007 -2.51927e-007 -12.3785 3.47783 0.771006 5.58675e-006 7.42893e-007 3 -8.02887 -4.95146 -0.697689 176.241 -1.72496 0.654472 180 7.01523e-015 178.822 178.952 8.49796 179.612 -4.35369e-006 -2.58604e-006 0.153751 -19.598 69.0245 20.433 8.1558 25.5613 -3.04602 -176.471 -2.73501 2.25867 4.54188e-006 -4.6773e-006 -1.18791 -1.31885 -7.26151 0.231606 7.68121e-007 -5.91167e-006 -0.107355 19.1497 68.4624 -19.9315 -8.16304 25.7647 2.77456 
48.8617 100.827 40.8071 0.71624 -3.58242 -0.149866 0.166547 -1.88002 -0.00421479 0.326224 0.242722 -0.0245082 0.326964 1.88779 -0.0299577 -6.00404 29.668 5.15833 -0.674583 -9.17409 2.6992 62.9392 -1.23641 -1.25201 111.281 18.6848 9.27634 2.35335e-005 -8.3594e-007 3.1461e-006 14.9053 0.112546 -0.530258 -2.91386e-006 1.02382e-006 -3.03773 8.02894 -4.95147 0.697682 -64.3494 -5.81781 3.91732 -109.376 14.5475 -4.12967 -8.02062e-007 -1.62912e-007 -2.51927e-007 -12.3844 3.43973 0.765675 5.58675e-006 7.42893e-007 3 -8.02887 -4.95146 -0.697689 176.235 -1.68808 0.655132 180 7.01523e-015 178.822 178.949 8.49447 179.613 -4.35369e-006 -2.58604e-006 0.153821 -19.5913 69.0174 20.4259 8.1558 25.5613 -3.04658 -176.479 -2.69077 2.26928 4.54188e-006 -4.6773e-006 -1.18791 -1.31444 -7.25984 0.232152 7.68121e-007 -5.91167e-006 -0.107355 19.1396 68.4509 -19.92 -8.16301 25.7643 2.77512 
48.8653 100.828 40.8067 0.720142 -3.55117 -0.143454 0.166424 -1.88876 -0.00731955 0.32675 0.225225 -0.0306903 0.327521 1.87029 -0.0361528 -6.04544 29.7233 5.1787 -0.654584 -9.20212 2.70421 62.9423 -1.19624 -1.22978 111.263 18.6686 9.29293 2.35335e-005 -8.3594e-007 3.1461e-006 14.9028 0.112548 -0.529225 -2.91386e-006 1.02382e-006 -3.03773 8.02894 -4.95147 0.697682 -64.3924 -5.81003 3.9153 -109.324 14.5499 -4.14644 -8.02062e-007 -1.62912e-007 -2.51927e-007 -12.3903 3.40202 0.760399 5.58675e-006 7.42893e-007 3 -8.02887 -4.95146 -0.697689 176.229 -1.65169 0.655792 180 7.01523e-015 178.822 178.946 8.49094 179.613 -4.35369e-006 -2.58604e-006 0.153888 -19.5847 69.0102 20.4188 8.1558 25.5613 -3.04713 -176.487 -2.64708 2.27979 4.54188e-006 -4.6773e-006 -1.1879 -1.31008 -7.25813 0.232696 7.68121e-007 -5.91167e-006 -0.107355 19.1296 68.4395 -19.9086 -8.16298 25.7639 2.77568 
48.8602 100.825 40.804 0.723964 -3.52091 -0.137247 0.166316 -1.89721 -0.0103434 0.327288 0.20832 -0.0367127 0.328088 1.85339 -0.0421882 -6.08629 29.7773 5.19878 -0.635046 -9.22944 2.70911 62.945 -1.15683 -1.20793 111.245 18.6527 9.30907 2.35335e-005 -8.3594e-007 3.1461e-006 14.9004 0.112549 -0.528202 -2.91386e-006 1.02382e-006 -3.03773 8.02894 -4.95147 0.697682 -64.4347 -5.80249 3.91336 -109.274 14.5524 -4.16277 -8.02062e-007 -1.62912e-007 -2.51927e-007 -12.3961 3.3653 0.75526 5.58675e-006 7.42893e-007 3 -8.02887 -4.95146 -0.697689 176.224 -1.61651 0.656451 180 7.01523e-015 178.822 178.943 8.48728 179.613 -4.35369e-006 -2.58604e-006 0.153946 -19.5782 69.0032 20.4118 8.1558 25.5613 -3.04767 -176.495 -2.60475 2.29003 4.54188e-006 -4.6773e-006 -1.1879 -1.30582 -7.2563 0.233234 7.68121e-007 -5.91167e-006 -0.107355 19.1197 68.4283 -19.8974 -8.16295 25.7635 2.77622 
48.8638 100.826 40.7956 0.727662 -3.49225 -0.131369 0.166231 -1.90518 -0.0132378 0.327847 0.192364 -0.0424795 0.328676 1.83743 -0.0479683 -6.12624 29.8294 5.21836 -0.616251 -9.25562 2.71381 62.9471 -1.11864 -1.18671 111.229 18.6375 9.32451 2.35335e-005 -8.3594e-007 3.1461e-006 14.8979 0.11255 -0.527196 -2.91386e-006 1.02382e-006 -3.03773 8.02894 -4.95147 0.697682 -64.4757 -5.79532 3.91157 -109.225 14.5552 -4.17837 -8.02062e-007 -1.62913e-007 -2.51927e-007 -12.4017 3.33017 0.750341 5.58675e-006 7.42893e-007 3 -8.02887 -4.95146 -0.697689 176.219 -1.58329 0.657109 180 7.01523e-015 178.822 178.94 8.48342 179.613 -4.35369e-006 -2.58604e-006 0.153992 -19.5718 68.9963 20.405 8.1558 25.5612 -3.04819 -176.502 -2.5646 2.29986 4.54188e-006 -4.6773e-006 -1.18789 -1.30175 -7.25429 0.233763 7.68121e-007 -5.91167e-006 -0.107355 19.1101 68.4173 -19.8865 -8.16293 25.7631 2.77672 
48.8548 100.822 40.7947 0.731194 -3.46577 -0.125942 0.166179 -1.9125 -0.0159542 0.328437 0.177711 -0.0478949 0.329292 1.82278 -0.0533973 -6.16493 29.8789 5.23724 -0.598478 -9.28024 2.71826 62.9484 -1.0821 -1.16633 111.214 18.6232 9.33897 2.35335e-005 -8.3594e-007 3.1461e-006 14.8956 0.112551 -0.526212 -2.91386e-006 1.02382e-006 -3.03773 8.02894 -4.95147 0.697682 -64.5151 -5.78867 3.90997 -109.178 14.5584 -4.19299 -8.02062e-007 -1.62912e-007 -2.51927e-007 -12.407 3.29721 0.745722 5.58675e-006 7.42893e-007 3 -8.02887 -4.95146 -0.697689 176.214 -1.55275 0.657766 180 7.01523e-015 178.822 178.937 8.47926 179.614 -4.35369e-006 -2.58604e-006 0.154019 -19.5655 68.9895 20.3983 8.1558 25.5612 -3.04869 -176.509 -2.52744 2.30912 4.54188e-006 -4.6773e-006 -1.18789 -1.29792 -7.25202 0.234279 7.68121e-007 -5.91167e-006 -0.107355 19.1008 68.4068 -19.876 -8.1629 25.7628 2.77718 
48.8553 100.823 40.8059 0.734516 -3.44209 -0.12109 0.166169 -1.919 -0.018444 0.329068 0.164719 -0.0528631 0.329947 1.80979 -0.0583797 -6.20199 29.925 5.25521 -0.582008 -9.30287 2.72239 62.9486 -1.04769 -1.14703 111.201 18.61 9.35219 2.35335e-005 -8.3594e-007 3.1461e-006 14.8933 0.112553 -0.525257 -2.91386e-006 1.02382e-006 -3.03773 8.02894 -4.95147 0.697682 -64.5524 -5.78266 3.90862 -109.135 14.5621 -4.20635 -8.02062e-007 -1.62912e-007 -2.51927e-007 -12.4119 3.26702 0.741485 5.58675e-006 7.42893e-007 3 -8.02887 -4.95146 -0.697689 176.209 -1.52562 0.658421 180 7.01523e-015 178.822 178.935 8.47476 179.614 -4.35369e-006 -2.58604e-006 0.154023 -19.5595 68.983 20.3919 8.1558 25.5611 -3.04916 -176.516 -2.49409 2.31766 4.54188e-006 -4.6773e-006 -1.18789 -1.29439 -7.24943 0.23478 7.68121e-007 -5.91167e-006 -0.107355 19.092 68.3967 -19.866 -8.16288 25.7625 2.77757 
48.8655 100.826 40.8026 0.737587 -3.42178 -0.116935 0.166211 -1.92448 -0.0206586 0.32975 0.153741 -0.0572883 0.33065 1.79881 -0.0628196 -6.23707 29.967 5.27208 -0.567123 -9.3231 2.72611 62.9475 -1.01585 -1.12905 111.19 18.5981 9.36391 2.35335e-005 -8.3594e-007 3.1461e-006 14.891 0.112554 -0.524336 -2.91386e-006 1.02382e-006 -3.03773 8.02894 -4.95147 0.697682 -64.5871 -5.77745 3.90758 -109.095 14.5664 -4.21819 -8.02062e-007 -1.62912e-007 -2.51927e-007 -12.4164 3.24019 0.737712 5.58675e-006 7.42893e-007 3 -8.02887 -4.95146 -0.697689 176.205 -1.50265 0.659073 180 7.01523e-015 178.822 178.933 8.4698 179.614 -4.35369e-006 -2.58604e-006 0.153999 -19.5538 68.9768 20.3857 8.15579 25.5611 -3.0496 -176.522 -2.46537 2.32531 4.54188e-006 -4.6773e-006 -1.18789 -1.29125 -7.24646 0.235262 7.68121e-007 -5.91167e-006 -0.107355 19.0837 68.3872 -19.8567 -8.16287 25.7622 2.77789 
48.8747 100.824 40.7749 0.740365 -3.40546 -0.113599 0.166314 -1.92878 -0.0225496 0.330494 0.145134 -0.0610747 0.331411 1.7902 -0.0666214 -6.2698 30.0042 5.28764 -0.554103 -9.34048 2.72936 62.945 -0.987038 -1.11261 111.182 18.5879 9.37386 2.35335e-005 -8.3594e-007 3.1461e-006 14.8889 0.112555 -0.523456 -2.91386e-006 1.02382e-006 -3.03773 8.02894 -4.95147 0.697682 -64.6189 -5.77317 3.90688 -109.059 14.5715 -4.22822 -8.02062e-007 -1.62912e-007 -2.51927e-007 -12.4204 3.21732 0.734486 5.58675e-006 7.42893e-007 3 -8.02887 -4.95146 -0.697689 176.201 -1.48455 0.659722 180 7.01523e-015 178.822 178.931 8.46433 179.614 -4.35369e-006 -2.58604e-006 0.153942 -19.5484 68.971 20.3799 8.15578 25.561 -3.04999 -176.527 -2.44209 2.33192 4.54188e-006 -4.6773e-006 -1.1879 -1.28854 -7.24302 0.235721 7.68121e-007 -5.91167e-006 -0.107355 19.076 68.3783 -19.8481 -8.16285 25.7621 2.77812 
